<svg width="62" height="62" viewBox="0 0 62 62" fill="none" xmlns="http://www.w3.org/2000/svg">
<g id="Home">
<g id="Homepage---Desktop">
<g id="header-lg">
<g id="content">
<g id="logo">
<path id="Fill-3" fill-rule="evenodd" clip-rule="evenodd" d="M24.3845 1.20324L22.7138 2.21535L22.212 2.21624L23.692 0.48837C23.8427 0.312379 23.9748 0.187561 24.0852 0.112581C24.197 0.0373786 24.3069 0 24.4143 0C24.5537 0 24.6672 0.0502832 24.7544 0.151962C24.843 0.254086 24.8856 0.385801 24.8856 0.54911C24.8856 0.678823 24.8545 0.789624 24.7908 0.879065C24.727 0.968062 24.592 1.07642 24.3845 1.20324Z" fill="#FFFF"/>
<path id="Fill-5" fill-rule="evenodd" clip-rule="evenodd" d="M2.89234 19.5131V23.8886H3.13353C3.76924 23.8886 4.21508 23.7275 4.47324 23.4056C4.73204 23.083 4.86123 22.5158 4.86188 21.7044C4.86188 20.8923 4.73161 20.3243 4.47454 20.0008C4.21573 19.6757 3.72531 19.5129 3.08981 19.512L2.89234 19.5131ZM2.32013 18.7713C3.21617 18.7713 3.85145 18.6892 4.22857 18.7493C4.60416 18.81 4.93648 18.8512 5.22226 18.988C5.6992 19.2183 6.06958 19.5398 6.33687 20.009C6.60155 20.4767 6.73487 21.0042 6.73487 21.6165C6.73487 22.7116 6.4306 23.3713 5.82099 23.9071C5.21225 24.4433 4.28598 24.5561 3.0424 24.5561H2.89234V28.8139C2.89234 28.939 2.95693 29.0382 2.99847 29.1121C3.03849 29.185 3.13483 29.2636 3.24249 29.3479C3.2588 29.3588 3.40843 29.3762 3.4491 29.4022C3.57742 29.4861 3.76228 29.5913 3.76228 29.7177V29.8957H0.5V29.7177C0.5 29.5808 0.64354 29.4752 0.76033 29.4022C0.802522 29.3766 0.875597 29.3552 0.896258 29.3392C0.994126 29.2607 1.05937 29.1801 1.09721 29.0958C1.13419 29.0124 1.15246 28.882 1.15246 28.7036V28.601V19.8664C1.15246 19.74 1.15963 19.6417 1.12592 19.5678C1.09265 19.4948 1.04959 19.4245 0.972378 19.3558C0.951717 19.3402 0.802957 19.3249 0.778381 19.3093C0.675728 19.2359 0.5 19.1333 0.5 19.0029V18.7713H2.32013Z" fill="#FFFF"/>
<path id="Fill-7" fill-rule="evenodd" clip-rule="evenodd" d="M10.9313 25.4359L10.9326 23.2606C10.9313 21.6635 10.8571 20.6109 10.7088 20.1025C10.5609 19.5955 10.2945 19.3405 9.91062 19.3405C9.51523 19.3405 9.30123 19.6004 9.14964 20.1183C8.99979 20.6363 8.98196 21.6831 8.98196 23.2606V25.4359C8.98196 27.0171 8.99979 28.0702 9.14964 28.5933C9.30166 29.1179 9.54438 29.3782 9.93933 29.3782C10.3234 29.3782 10.5748 29.1226 10.7231 28.6095C10.8715 28.0953 10.9326 27.0381 10.9313 25.4359ZM9.91062 30.3607C8.96326 30.3603 8.21772 29.8279 7.67248 28.7624C7.12746 27.6973 6.85474 26.2291 6.85474 24.3599C6.85474 22.4848 7.12746 21.0165 7.67248 19.9535C8.21728 18.8906 8.96326 18.3586 9.91062 18.3586C10.8467 18.3586 11.5863 18.8906 12.1298 19.9535C12.6718 21.0165 12.9437 22.4852 12.9437 24.3599C12.9437 26.2351 12.6718 27.7033 12.1294 28.7673C11.5876 29.8297 10.8467 30.3603 9.91062 30.3607Z" fill="#FFFF"/>
<path id="Fill-9" fill-rule="evenodd" clip-rule="evenodd" d="M15.4687 19.3839L15.468 23.4437H15.6381C16.1699 23.4437 16.5685 23.3966 16.8319 23.0495C17.095 22.7008 17.2273 22.2405 17.2273 21.5387C17.2273 20.7634 17.1059 20.2541 16.8654 19.9446C16.6261 19.636 16.2107 19.432 15.622 19.4324L15.4687 19.3839ZM14.8234 18.7714C15.5866 18.7714 16.1501 18.6846 16.5174 18.7387C16.8828 18.7899 17.2086 18.821 17.4956 18.9405C18.002 19.1603 18.3913 19.4562 18.6625 19.883C18.9337 20.3101 19.0692 20.8041 19.0692 21.3968C19.0687 22.2084 18.8647 22.8377 18.4554 23.2982C18.045 23.759 17.416 24.0618 16.5668 24.2138C17.0781 24.3508 17.4698 24.5769 17.7416 24.8959C18.012 25.2152 18.2408 25.7432 18.4245 26.4814L18.9078 28.5228C18.9637 28.753 19.0185 28.9308 19.0687 29.057C19.1196 29.1829 19.1799 29.2743 19.2458 29.332C19.2614 29.3482 19.2266 29.3685 19.2725 29.3956C19.4152 29.479 19.4213 29.5754 19.4213 29.6853V29.896H17.6035L16.612 26.0248C16.5972 25.9666 16.5983 25.9581 16.5781 25.8633C16.3789 25.0517 15.9415 24.6928 15.5065 24.6501V28.814C15.5065 28.9388 15.5083 29.0383 15.5492 29.1121C15.5905 29.1851 15.6546 29.2639 15.7619 29.3482C15.7771 29.3582 15.7575 29.3769 15.798 29.4029C15.9261 29.4864 15.9415 29.5914 15.9415 29.7171V29.896H13.1588L13.1575 29.5825C13.1575 29.4465 13.2162 29.4081 13.3339 29.3355C13.3758 29.3084 13.4048 29.3217 13.4263 29.3062C13.5233 29.2276 13.6303 29.1626 13.6683 29.0797C13.7071 28.9949 13.7666 28.8819 13.7666 28.7036V28.6011V19.8665C13.7666 19.7401 13.7099 19.6416 13.677 19.5681C13.6433 19.4958 13.5687 19.4242 13.4926 19.3561C13.4722 19.3403 13.4382 19.3252 13.4135 19.3096C13.3099 19.236 13.2538 19.2457 13.2547 19.1149L13.249 18.7714H14.8234Z" fill="#FFFF"/>
<path id="Fill-11" fill-rule="evenodd" clip-rule="evenodd" d="M24.2452 18.7713C24.4103 18.7713 24.6353 18.6485 24.8324 18.6238C25.0288 18.6002 25.0758 18.4525 25.5107 18.4055V21.2187H24.9681C24.7837 21.2187 24.6636 21.0612 24.6069 20.747C24.5812 20.6057 24.5579 20.4947 24.5384 20.4166C24.4505 20.0597 24.335 19.8103 24.1928 19.6617C24.049 19.5109 23.8576 19.4388 23.6162 19.4388H23.3359V28.8139C23.3359 28.9496 23.3328 29.0529 23.3735 29.1234C23.4135 29.1942 23.4766 29.2689 23.5834 29.3481C23.5988 29.3579 23.6808 29.3737 23.716 29.3953C23.8611 29.4787 23.9883 29.5857 23.9883 29.717V29.8959H20.9435V29.7179C20.9435 29.5857 20.9964 29.4787 21.1399 29.3953C21.1806 29.3737 21.2023 29.3555 21.2228 29.3397C21.3254 29.2662 21.4457 29.1942 21.4862 29.1234C21.5277 29.0529 21.596 28.9496 21.596 28.8139V28.601V19.4388H21.1597C20.9135 19.4388 20.7189 19.5106 20.5758 19.6615C20.4331 19.8101 20.3167 20.0611 20.2306 20.4168C20.2152 20.4905 20.1943 20.5955 20.1684 20.7317C20.1073 21.0563 19.9877 21.2187 19.8083 21.2187H19.4211V18.4055C19.4211 18.4525 19.8224 18.6002 20.0173 18.6238C20.2124 18.6485 20.3609 18.7713 20.5292 18.7713H24.2452Z" fill="#FFFF"/>
<path id="Fill-13" fill-rule="evenodd" clip-rule="evenodd" d="M30.2955 20.0939V19.8663C30.2955 19.7397 30.2322 19.6416 30.1983 19.5677C30.1653 19.4948 30.0861 19.4238 30.0089 19.3557C29.9995 19.3457 29.9071 19.3295 29.8767 19.3092C29.7694 19.2358 29.6431 19.1332 29.6431 19.0028V18.771H31.8179V19.0028C31.8179 19.1332 31.7405 19.2358 31.6281 19.3083C31.6015 19.3248 31.5683 19.3399 31.548 19.3548C31.4756 19.4191 31.4419 19.4843 31.411 19.5524C31.3808 19.6198 31.383 19.715 31.383 19.8345V20.0939V26.4487C31.383 27.3761 31.3273 28.0202 31.2603 28.3809C31.1942 28.7433 31.0698 29.0466 30.9108 29.2922C30.6803 29.6484 30.3745 29.9156 30.0024 30.0934C29.6318 30.2707 29.1851 30.3604 28.6683 30.3599C27.746 30.3599 27.2275 30.0978 26.8336 29.5712C26.4382 29.0452 26.3808 28.1479 26.3808 26.8804V19.8663C26.3808 19.7397 26.2246 19.6416 26.1905 19.5677C26.1581 19.4957 26.0333 19.4238 25.9565 19.3557C25.9406 19.3457 25.8056 19.3295 25.7751 19.3092C25.6731 19.2409 25.5109 19.1388 25.5109 19.0033V18.771H28.3362L28.3353 19.115C28.3362 19.2449 28.2788 19.2916 28.1655 19.365C28.13 19.3855 28.11 19.3711 28.105 19.3755C28.0272 19.444 27.9793 19.4992 27.9473 19.566C27.9134 19.6338 27.9032 19.715 27.9032 19.8345V20.0939V27.282C27.9032 28.0293 27.9793 28.5342 28.1459 28.7938C28.3123 29.0528 28.5989 29.1823 29.0143 29.1823C29.4484 29.1823 29.8014 29.0245 29.9813 28.7073C30.1605 28.3904 30.2955 27.8315 30.2955 27.0308V20.0939Z" fill="#FFFF"/>
<path id="Fill-15" fill-rule="evenodd" clip-rule="evenodd" d="M35.9502 26.5434C35.9502 26.3392 36.008 26.1815 35.9539 26.0724C35.9004 25.9616 35.8545 25.8729 35.7318 25.8052C35.6896 25.7894 35.6337 25.7683 35.5674 25.7416C35.3884 25.6748 35.2977 25.5718 35.2977 25.4357V25.2236H37.6901V28.3352C37.6901 28.5441 37.8116 28.7179 37.9069 28.8565C38.0022 28.9953 38.125 29.083 38.125 29.1203V29.4111C38.125 29.6261 37.8051 29.8365 37.2679 30.0464C36.7299 30.2551 36.1235 30.3601 35.4996 30.3601C34.3412 30.3601 33.4585 29.8552 32.8721 28.8445C32.286 27.8346 31.9861 26.3392 31.9861 24.3599C31.9865 22.5159 32.2725 21.055 32.8502 19.9759C33.4295 18.898 34.2027 18.3586 35.1759 18.3586C35.4056 18.3586 35.6635 18.4094 35.9506 18.5119C36.2373 18.6136 36.4134 18.665 36.4808 18.6646C36.5607 18.6646 36.6638 18.7729 36.7884 18.7177C36.9093 18.663 36.9917 18.7714 37.032 18.7714H37.4726V21.2188H37.0478C36.8325 21.2188 36.679 21.2499 36.5874 20.8735C36.5504 20.7211 36.5198 20.7073 36.4948 20.6129C36.3623 20.1201 36.2046 19.8224 36.022 19.6077C35.8404 19.3926 35.6048 19.3127 35.3125 19.3129C34.8212 19.3127 34.4809 19.6527 34.2916 20.3041C34.1011 20.9565 34.008 22.287 34.008 24.282C34.008 26.0889 34.1127 27.3745 34.3214 28.1345C34.5315 28.8936 34.8797 29.2756 35.3665 29.2756C35.6477 29.2756 35.7595 29.1655 35.8682 28.9459C35.9789 28.7256 35.9502 28.2633 35.9502 27.5564V26.5434Z" fill="#FFFF"/>
<path id="Fill-17" fill-rule="evenodd" clip-rule="evenodd" d="M42.2571 20.0939V19.8668C42.2571 19.7397 42.435 19.6412 42.4011 19.5677C42.3671 19.4948 42.41 19.4238 42.3321 19.3557C42.3228 19.3457 42.3758 19.3295 42.3465 19.3092C42.2384 19.2358 42.2571 19.1332 42.2571 19.0033V18.771H43.997V19.0028C43.997 19.1337 44.052 19.2358 43.94 19.3092C43.9143 19.3248 43.9454 19.3399 43.9261 19.3557C43.8526 19.4191 43.8313 19.4843 43.7993 19.5524C43.7673 19.6202 43.7795 19.7146 43.7795 19.8345V20.0939V26.4487C43.7795 27.3761 43.7462 28.0202 43.6803 28.3809C43.6144 28.7433 43.5018 29.0466 43.3432 29.2922C43.1129 29.6484 42.8123 29.9156 42.4415 30.0934C42.0705 30.2707 41.626 30.3599 41.1101 30.3599C40.1884 30.3599 39.4294 30.0983 39.0361 29.5712C38.641 29.0452 38.3424 28.1479 38.3424 26.8804V19.8668C38.3424 19.7397 38.427 19.6416 38.3946 19.5677C38.3611 19.4948 38.3569 19.4238 38.2795 19.3557C38.2645 19.3457 38.2752 19.3295 38.2445 19.3092C38.1416 19.2409 38.1249 19.1383 38.1249 19.0028V18.771H40.9522V19.0028C40.9522 19.1332 40.8091 19.2358 40.6969 19.3083C40.6603 19.3295 40.5972 19.343 40.5925 19.3475C40.5155 19.4164 40.5307 19.4852 40.4968 19.5524C40.4641 19.6202 40.5172 19.7146 40.5172 19.835V20.0944V27.2824C40.5172 28.0302 40.5092 28.5342 40.6758 28.7938C40.8419 29.0528 41.0864 29.1823 41.5009 29.1823C41.9365 29.1823 42.0266 29.0245 42.2058 28.7073C42.3845 28.3904 42.2571 27.8315 42.2571 27.0308V20.0939Z" fill="#FFFF"/>
<path id="Fill-19" fill-rule="evenodd" clip-rule="evenodd" d="M44.432 29.896V29.7171C44.432 29.5803 44.539 29.476 44.6571 29.4025C44.6984 29.3765 44.7539 29.3556 44.775 29.3396C44.872 29.2613 44.8555 29.1796 44.8933 29.0966C44.9311 29.0123 44.867 28.8823 44.867 28.7037V28.6011V19.867C44.867 19.741 44.947 19.642 44.9142 19.5682C44.88 19.495 44.8733 19.4242 44.7972 19.3559C44.7761 19.3403 44.6821 19.3252 44.6562 19.3094C44.5538 19.236 44.432 19.1334 44.432 19.0035V18.7714H48.2073C48.566 18.7714 48.8491 18.6508 49.0731 18.6321C49.2943 18.6134 49.6517 18.4735 49.6517 18.437V21.2188H49.3215C49.0031 21.2188 48.8178 21.074 48.7608 20.7394C48.7354 20.5767 48.7069 20.4624 48.6764 20.3727C48.5734 20.0654 48.4105 19.8476 48.1849 19.7121C47.9601 19.5753 47.6243 19.5094 47.1936 19.5103L46.8243 19.5125V23.4438H47.1016C47.2967 23.4438 47.447 23.5032 47.5557 23.4304C47.6627 23.3579 47.75 23.286 47.8154 23.1178C47.8374 23.0595 47.8607 23.1256 47.885 23.0261C47.9577 22.764 48.0747 22.7763 48.2393 22.7763H48.5642V25.6687H48.2393C48.0749 25.6687 47.9577 25.559 47.8859 25.2978C47.86 25.1983 47.8374 25.1298 47.8154 25.0719C47.7547 24.9095 47.6675 24.7691 47.5551 24.6926C47.4429 24.6167 47.2919 24.5562 47.1016 24.5562H46.8409L46.8417 29.2285H47.2186C47.6269 29.2285 47.9648 29.1489 48.235 29.0167C48.504 28.8864 48.6991 28.6819 48.8224 28.4202C48.9035 28.2269 48.9585 27.9109 48.9835 27.6024C49.0192 27.2461 49.1525 27.0036 49.3824 27.0036H50.0866V29.896H44.432Z" fill="#FFFF"/>
<path id="Fill-21" fill-rule="evenodd" clip-rule="evenodd" d="M50.5215 30.195V26.7715L50.7262 26.7706C51.0283 26.7706 51.1248 26.9835 51.1664 27.4078C51.1872 27.5756 51.1655 27.7033 51.1748 27.7919C51.2525 28.3212 51.4013 28.7232 51.6603 28.9978C51.9173 29.2728 52.2457 29.4112 52.6616 29.4112C53.0694 29.4112 53.3958 29.2585 53.6459 28.9548C53.8967 28.6516 54.0198 28.2509 54.0198 27.7531C54.0198 27.3556 53.9232 26.9684 53.7316 26.59C53.5387 26.2133 53.125 25.6786 52.4917 24.9882C52.408 24.8943 52.2855 24.7584 52.1216 24.5789C50.8256 23.1769 50.1792 22.0293 50.1792 21.1389C50.1792 20.3172 50.4043 19.6484 50.8538 19.132C51.3051 18.6154 51.8847 18.3595 52.5894 18.3586C52.8812 18.3595 53.1701 18.4011 53.4567 18.4881C53.7436 18.5742 53.8993 18.6176 53.926 18.6176C53.9919 18.6176 54.0761 18.7393 54.1751 18.6942C54.2749 18.6508 54.3427 18.7714 54.3778 18.7714H55.0887V21.2188H54.3627C54.1635 21.2188 54.0404 21.2168 53.9952 20.9077C53.9634 20.7144 53.9363 20.6365 53.9097 20.5208C53.7975 20.0554 53.6459 19.7595 53.4558 19.557C53.2673 19.3561 53.0146 19.2744 52.697 19.274C52.3945 19.2735 52.1544 19.3881 51.9758 19.5975C51.7962 19.8075 51.707 20.0925 51.7066 20.4432C51.7066 20.9611 52.067 21.6075 52.7899 22.3775C52.9076 22.5037 52.9963 22.6018 53.0585 22.6694C53.6113 23.2615 54.0143 23.7069 54.2671 24.005C54.5209 24.3036 54.742 24.5871 54.9313 24.8543C55.1461 25.174 55.3071 25.5175 55.4149 25.8833C55.5228 26.2502 55.5763 26.6429 55.5763 27.0614C55.5763 28.0206 55.304 28.8009 54.7623 29.4029C54.2194 30.0054 53.5213 30.3058 52.6664 30.3058C52.3791 30.3058 52.0837 30.2615 51.7797 30.1727C51.4748 30.0829 51.3099 30.0395 51.2847 30.0386C51.2325 30.0395 51.1442 30.0646 51.0202 30.1167C50.8945 30.1707 50.9415 30.1959 50.8651 30.1959L50.5215 30.195Z" fill="#FFFF"/>
<path id="Fill-23" fill-rule="evenodd" clip-rule="evenodd" d="M57.244 25.8913H58.8654L58.0426 21.5631L57.244 25.8913ZM57.0676 27.0037L56.8523 28.2506C56.8478 28.2768 56.8423 28.3327 56.8367 28.3747C56.8078 28.5785 56.7912 28.7287 56.7914 28.803C56.7912 29.0064 56.7666 29.1851 56.9182 29.3261C57.07 29.4665 57.0461 29.6024 57.0461 29.7173V29.8961H55.0887V29.7173C55.0887 29.5755 55.1925 29.4683 55.2845 29.3949C55.3195 29.3695 55.3673 29.353 55.3732 29.3484C55.4765 29.244 55.5772 29.0927 55.649 28.8958C55.7199 28.6998 55.7936 28.4275 55.8545 28.0755L57.4337 19.6933L57.3354 19.2701C57.3293 19.2606 57.3256 19.247 57.3238 19.231C57.3212 19.215 57.3217 19.1918 57.3217 19.1593C57.3217 19.0336 57.4776 18.9251 57.789 18.8298L57.8127 18.8225C58.0468 18.7486 58.2808 18.6561 58.5157 18.543C58.7477 18.4309 58.8745 18.3753 58.8952 18.3753C58.9415 18.3744 58.9817 18.388 59.017 18.4176C59.0539 18.4471 59.0774 18.487 59.0879 18.5399L61.1292 28.6012C61.1814 28.8633 61.1707 29.0927 61.3006 29.2887C61.4315 29.4847 61.3958 29.6276 61.3958 29.7173V29.8961H59.221V29.7173C59.221 29.5915 59.1416 29.4578 59.2932 29.3157C59.4421 29.1748 59.4415 29.0128 59.4415 28.8291C59.4415 28.7499 59.3969 28.6646 59.3869 28.5703C59.3769 28.4766 59.3428 28.3345 59.321 28.235L59.0722 27.0037H57.0676Z" fill="#FFFF"/>
<path id="Fill-25" fill-rule="evenodd" clip-rule="evenodd" d="M3.29186 42.5775H5.40125L4.33144 36.9427L3.29186 42.5775ZM3.06132 43.9125L2.78185 45.548C2.77555 45.581 2.76924 45.6597 2.7625 45.7147C2.72248 45.981 2.70247 46.1795 2.70334 46.2751C2.70334 46.5406 2.81796 46.7737 3.01478 46.9589C3.21139 47.1424 3.32731 47.3191 3.32731 47.4686V48.1398H0.5V47.4681C0.5 47.2844 0.626141 47.1444 0.746193 47.0492C0.792953 47.0158 0.852544 46.9944 0.859721 46.988C0.993691 46.8509 1.12179 46.6547 1.21574 46.3991C1.30883 46.1432 1.40539 45.7877 1.48456 45.3313L3.5374 34.4194L3.40973 33.867C3.40321 33.8532 3.39886 33.8361 3.39603 33.8163C3.39277 33.7967 3.39168 33.7649 3.39168 33.7246C3.39168 33.5611 3.59547 33.4173 4.00151 33.2947L4.03109 33.2838C4.33796 33.1895 4.64375 33.0678 4.94649 32.9209C5.24944 32.7745 5.41299 32.7007 5.44105 32.7007C5.50107 32.7007 5.55479 32.7203 5.60068 32.7572C5.64787 32.7955 5.67767 32.8489 5.69072 32.9163L8.34991 46.0164C8.41733 46.3575 8.53499 46.6547 8.7055 46.9106C8.87449 47.1669 8.96017 47.3965 8.96061 47.5126L8.95974 48.1398H5.50216V47.4681C5.50216 47.3044 5.57871 47.1313 5.77641 46.9466C5.97258 46.7628 6.06088 46.5512 6.0611 46.3127C6.0611 46.2106 6.05022 46.0976 6.03543 45.9754C6.0226 45.8533 6.00042 45.6557 5.97323 45.5267L5.67136 43.9125H3.06132Z" fill="#FFFF"/>
<path id="Fill-27" fill-rule="evenodd" clip-rule="evenodd" d="M18.7688 43.3374C18.7688 43.0711 18.7977 42.8664 18.7279 42.7233C18.6568 42.5805 18.5748 42.4639 18.4154 42.3767C18.3616 42.3553 18.4217 42.3284 18.336 42.2941C18.1026 42.2067 18.1163 42.0728 18.1163 41.8952V41.4651H21.1611V45.6689C21.1611 45.9412 21.145 46.1682 21.2677 46.3484C21.3914 46.5302 21.4125 46.6438 21.4134 46.6903L21.393 47.0701C21.3938 47.3496 21.0354 47.625 20.3358 47.8976C19.6355 48.1706 18.874 48.3065 18.0611 48.3065C16.5556 48.3065 15.4191 47.6491 14.6553 46.3333C13.891 45.0174 13.5098 43.0711 13.5098 40.4942C13.5098 38.095 13.8851 36.193 14.6392 34.7879C15.391 33.3836 16.4004 32.6816 17.6672 32.6812C17.9676 32.6812 18.3031 32.7472 18.6761 32.8807C19.0493 33.0138 19.2807 33.0805 19.3658 33.0805C19.4726 33.0805 19.6061 33.0064 19.7649 32.9343C19.9247 32.8625 20.0319 32.7879 20.0863 32.7879H20.9436V36.7928H20.1054C19.8266 36.7928 19.6259 36.6388 19.5054 36.1478C19.4591 35.9513 19.4191 35.8361 19.3856 35.713C19.2124 35.0725 19.0076 34.6357 18.7718 34.355C18.5343 34.0755 18.2262 33.9476 17.8466 33.9476C17.2064 33.9476 16.764 34.3774 16.5178 35.2269C16.2707 36.0759 16.1479 37.8011 16.1479 40.4003C16.1479 42.7511 16.2838 44.4227 16.557 45.4121C16.8301 46.4 17.2834 46.8948 17.9167 46.8948C18.2829 46.8948 18.4743 46.7524 18.6181 46.4656C18.7607 46.1802 18.7688 45.5763 18.7688 44.6563V43.3374Z" fill="#FFFF"/>
<path id="Fill-29" fill-rule="evenodd" clip-rule="evenodd" d="M27.2506 41.895V39.0627C27.2506 36.9833 27.0838 35.6127 26.8914 34.9512C26.6971 34.2898 26.3174 33.9596 25.8174 33.9596C25.3039 33.9596 24.9314 34.2969 24.7354 34.9726C24.5397 35.6465 24.4233 37.0106 24.4233 39.0627V41.895C24.4233 43.9539 24.5214 45.324 24.718 46.0051C24.914 46.6877 25.2693 47.0288 25.783 47.0292C26.2828 47.0288 26.6974 46.695 26.8914 46.0271C27.0834 45.3583 27.2506 43.9813 27.2506 41.895ZM25.783 48.3063C24.5506 48.3063 23.5784 47.6128 22.8692 46.2262C22.1606 44.8379 21.8048 42.928 21.8048 40.4944C21.8048 38.0534 22.1606 36.1416 22.8692 34.7574C23.5788 33.3729 24.5501 32.6816 25.783 32.6812C27.0034 32.6816 27.9664 33.3729 28.6717 34.757C29.3787 36.1416 29.7317 38.0534 29.7313 40.494C29.7313 42.934 29.3787 44.8475 28.6717 46.2309C27.9659 47.6141 27.0034 48.3063 25.783 48.3063Z" fill="#FFFF"/>
<path id="Fill-31" fill-rule="evenodd" clip-rule="evenodd" d="M30.2954 48.1399V43.9126H30.8543C31.2473 43.9126 31.4698 44.0487 31.524 44.6016C31.551 44.8192 31.5712 44.9169 31.5836 45.0328C31.6847 45.7203 31.9022 46.2105 32.2389 46.5675C32.576 46.9251 33.0131 47.0877 33.5529 47.0877C34.0864 47.0868 34.5164 46.8806 34.8428 46.4848C35.1679 46.0899 35.3324 45.5639 35.3324 44.9155C35.3324 44.3985 35.2071 43.8921 34.9572 43.4006C34.708 42.91 34.1697 42.2127 33.3437 41.3141C33.2356 41.1899 33.0766 41.0133 32.8628 40.7812C31.1769 38.9543 30.3346 37.4603 30.3346 36.3009C30.3341 35.2311 30.6279 34.3599 31.2134 33.6888C31.8015 33.0176 32.5533 32.6816 33.4731 32.6812C33.8546 32.6812 34.2288 32.7372 34.6031 32.8502C34.9768 32.9628 35.1786 33.0176 35.2121 33.0176C35.2993 33.0176 35.4081 32.961 35.5372 32.903C35.6666 32.8456 35.756 32.7879 35.803 32.7879H36.3824L36.3833 36.7928H35.7826C35.5227 36.7928 35.3628 36.5966 35.3021 36.1943C35.2628 35.9422 35.2267 35.7424 35.1932 35.5929C35.0466 34.9864 34.8502 34.553 34.6027 34.2904C34.3552 34.0281 34.0266 33.8975 33.6131 33.8975C33.2195 33.8975 32.9068 34.0339 32.674 34.3069C32.4394 34.5792 32.3237 34.9443 32.3237 35.4007C32.3241 36.0759 32.7939 36.9143 33.733 37.9168C33.8867 38.0804 34.0029 38.2067 34.0823 38.2944C34.8039 39.0658 35.3282 39.6456 35.6577 40.0341C35.9874 40.423 36.2754 40.7912 36.5224 41.1379C36.8024 41.5535 37.012 42.0011 37.1529 42.4773C37.2923 42.9549 37.3615 43.466 37.3615 44.0122C37.3615 45.2584 37.009 46.2759 36.3021 47.0597C35.5957 47.8433 34.6864 48.2351 33.5733 48.2351C33.1999 48.2351 32.8148 48.1777 32.4198 48.0618C32.0222 47.9461 31.8067 47.888 31.7737 47.8885C31.7078 47.888 31.5923 47.9459 31.4296 48.0142C31.2643 48.0818 31.1334 48.1399 31.0338 48.1399H30.2954Z" fill="#FFFF"/>
<path id="Fill-33" fill-rule="evenodd" clip-rule="evenodd" d="M43.7199 32.9274C43.9332 32.9274 44.303 32.9123 44.5598 32.8813C44.8167 32.8508 44.8669 32.8043 45.5194 32.7432V36.3484H44.6605C44.4206 36.3484 44.263 36.172 44.1899 35.7626C44.157 35.579 44.1266 35.4493 44.0994 35.3472C43.9876 34.8835 43.8365 34.6933 43.6496 34.4991C43.4633 34.3048 43.2127 34.346 42.9002 34.346H42.2571V46.2934C42.2571 46.4694 42.3915 46.6051 42.4441 46.6972C42.4981 46.7884 42.6475 46.8861 42.7864 46.9878C42.8073 47.0027 42.9287 47.0227 42.9759 47.0501C43.1631 47.1586 43.3445 47.2986 43.3445 47.4692V48.1405H39.2123V47.4692C39.2123 47.299 39.3852 47.1586 39.5727 47.0501C39.626 47.0227 39.7047 46.9991 39.7319 46.9791C39.865 46.8836 40.0633 46.7884 40.1172 46.6968C40.169 46.6051 40.2997 46.4698 40.2997 46.2934V46.0161V34.346H39.7012C39.3819 34.346 39.1283 34.312 38.9422 34.5062C38.7554 34.7009 38.607 34.9632 38.4926 35.4269C38.4728 35.5221 38.4457 35.5975 38.4117 35.7748C38.3326 36.1987 38.1755 36.3484 37.9415 36.3484H37.4724V32.7432C37.6899 32.8043 37.9787 32.8508 38.2314 32.8813C38.4859 32.9123 38.6916 32.9265 38.9117 32.9265L43.7199 32.9274Z" fill="#FFFF"/>
<path id="Fill-35" fill-rule="evenodd" clip-rule="evenodd" d="M47.0971 42.5775H49.2056L48.1352 36.9432L47.0971 42.5775ZM46.8668 43.9125L46.5864 45.548C46.5804 45.581 46.5738 45.6597 46.5673 45.7147C46.5266 45.981 46.5068 46.1795 46.5068 46.2751C46.5068 46.5406 46.6856 46.7737 46.8827 46.9589C47.0795 47.1424 47.2593 47.3191 47.2593 47.4686V48.1398H44.4373L44.4379 47.5131C44.4379 47.3286 44.4982 47.1664 44.6176 47.0703C44.6639 47.0378 44.6911 47.0056 44.6978 46.9991C44.8305 46.8625 44.9431 46.66 45.0369 46.4048C45.1308 46.149 45.2174 45.7908 45.2965 45.334L47.3472 34.4205L47.2165 33.8677C47.2108 33.8543 47.2052 33.8363 47.2006 33.8167C47.1987 33.7967 47.1961 33.7653 47.1961 33.7253C47.1961 33.5615 47.4005 33.4171 47.8063 33.295L47.8365 33.2834C48.1428 33.1895 48.4477 33.0678 48.7513 32.9209C49.0532 32.7745 49.2195 32.7007 49.2454 32.7007C49.3059 32.7007 49.3592 32.7203 49.4053 32.7576C49.452 32.7955 49.4836 32.8489 49.4957 32.9167L52.1545 46.0164C52.2213 46.3575 52.4131 46.6547 52.584 46.9106C52.7537 47.1669 52.914 47.3516 52.914 47.4686V48.1398H49.4342V47.4681C49.4342 47.3044 49.4479 47.1313 49.6449 46.9466C49.842 46.7628 49.8985 46.5512 49.8985 46.3127C49.899 46.2106 49.8703 46.0976 49.857 45.9754C49.8429 45.8533 49.8126 45.6557 49.7865 45.5267L49.4753 43.9125H46.8668Z" fill="#FFFF"/>
<path id="Fill-37" fill-rule="evenodd" clip-rule="evenodd" d="M56.3937 34.346V39.6858H56.5087C57.201 39.6858 57.7197 39.4344 58.0635 38.9807C58.4052 38.5275 58.5779 37.8311 58.5783 36.9178C58.5779 35.909 58.4206 35.2776 58.1077 34.8749C57.7949 34.4733 57.2547 34.346 56.4894 34.346H56.3937ZM55.4485 32.7886C56.4417 32.7886 57.1757 32.8923 57.6529 32.9603C58.1301 33.0291 58.5544 33.1753 58.9269 33.3326C59.5874 33.6185 60.0946 34.0566 60.4485 34.6128C60.8008 35.1686 60.9761 35.8394 60.9761 36.6108C60.9761 37.6672 60.7099 38.4991 60.177 39.0993C59.6444 39.7003 58.8247 40.1005 57.7186 40.2986C58.385 40.4759 58.8943 40.7725 59.2477 41.1892C59.5998 41.6055 59.8971 42.2939 60.1375 43.255L60.7675 45.9143C60.8402 46.2146 60.9095 46.4462 60.9761 46.6104C61.0437 46.7733 61.1203 46.8934 61.2066 46.9682C61.226 46.9878 61.1614 47.016 61.2231 47.0499C61.4076 47.1584 61.3958 47.285 61.3958 47.4279V48.1405H59.0672L57.7775 42.8813C57.7584 42.8065 57.7873 42.6839 57.7612 42.5613C57.5011 41.5058 57.0461 40.9276 56.3937 40.873V46.2934C56.3937 46.4567 56.3678 46.5866 56.4209 46.6823C56.4741 46.7778 56.544 46.8792 56.6842 46.9878C56.7051 47.0025 56.7425 47.0261 56.7965 47.0599C56.962 47.1689 57.0461 47.3051 57.0461 47.4688V48.1405H53.3489V47.4693C53.3489 47.2915 53.3904 47.1555 53.5442 47.0599C53.597 47.0261 53.6207 46.9982 53.647 46.9791C53.7725 46.8761 53.8684 46.7695 53.9202 46.6609C53.9696 46.5519 54.0013 46.3811 54.0013 46.1503V46.0171V34.6442C54.0013 34.4817 53.9626 34.3514 53.9202 34.2561C53.8776 34.1609 53.7973 34.0688 53.6969 33.9807C53.6705 33.9602 53.7193 33.9393 53.6862 33.9199C53.5548 33.8234 53.5664 33.6908 53.5664 33.521V32.7886H55.4485Z" fill="#FFFF"/>
<path id="Fill-39" fill-rule="evenodd" clip-rule="evenodd" d="M2.67485 52.5901V60.9794L2.73227 60.9801C3.3421 60.9801 3.79186 60.7525 4.03196 60.2975C4.27163 59.8429 4.41473 58.9794 4.41473 57.7063V55.756C4.41473 54.4835 4.28642 53.6732 4.04718 53.2178C3.80686 52.7637 3.3732 52.5901 2.76272 52.5901H2.67485ZM1.15246 52.9913V52.7915C1.15246 52.6816 1.14658 52.5941 1.11875 52.5298C1.08917 52.4651 1.04502 52.4034 0.978467 52.3434C0.960851 52.33 1.12483 52.316 1.10309 52.3024C1.01305 52.2381 1.15246 52.1491 1.15246 52.0343V51.9226H1.79208C2.67289 51.9226 3.31382 51.8299 3.71922 51.9329C4.12396 52.0363 4.47519 52.14 4.77576 52.3881C5.25292 52.7821 5.60068 53.2952 5.82099 53.9967C6.04131 54.6962 6.1507 55.6031 6.15027 56.752C6.15027 57.9001 6.04131 58.8179 5.82099 59.5201C5.60068 60.2236 5.25249 60.7662 4.77663 61.1569C4.47519 61.4003 4.12309 61.6242 3.71922 61.7281C3.31382 61.832 2.67224 61.9348 1.79143 61.9348H0.5V61.4342C0.5 61.3151 0.655502 61.2226 0.758807 61.1583C0.794692 61.1362 0.872552 61.118 0.892343 61.1031C0.976945 61.0352 1.05154 60.964 1.08525 60.8897C1.11896 60.8172 1.15246 60.7019 1.15246 60.5451V60.4565V52.9913Z" fill="#FFFF"/>
<path id="Fill-41" fill-rule="evenodd" clip-rule="evenodd" d="M6.47833 61.9346L6.47746 61.488C6.47833 61.369 6.529 61.2493 6.63296 61.1854C6.66906 61.1627 6.69537 61.1309 6.71364 61.1162C6.79912 61.0484 6.85762 60.9705 6.89155 60.8962C6.92526 60.8237 6.87458 60.7044 6.87524 60.5484L6.80716 60.4559V52.7913C6.80716 52.6813 6.86088 52.5939 6.83065 52.5292C6.80194 52.4649 6.78824 52.4032 6.71995 52.3432C6.70168 52.3298 6.60534 52.3158 6.58337 52.3024C6.49311 52.2381 6.37219 52.1489 6.37219 52.0341V51.6341L9.61229 51.6336C9.9259 51.6341 10.0962 51.6258 10.2919 51.6096C10.4866 51.5931 10.7219 51.5698 10.7219 51.5366V53.7024H10.6823C10.4033 53.7024 10.2395 53.7139 10.1893 53.42C10.1667 53.2772 10.1434 53.246 10.1153 53.1679C10.0259 52.8963 9.88219 52.7946 9.68493 52.6751C9.48702 52.5556 9.19993 52.5899 8.82238 52.5899H8.54704V56.1498H8.73473C8.90503 56.1498 9.03791 56.0935 9.13186 56.0283C9.2269 55.964 9.30324 55.8456 9.36087 55.6988C9.37914 55.6483 9.39915 55.5237 9.4222 55.4358C9.48441 55.2073 9.58749 55.0373 9.73212 55.0373H10.0694V57.9297H9.73212C9.58749 57.9297 9.48441 57.81 9.42155 57.5802C9.39959 57.4927 9.37871 57.4213 9.36087 57.3712C9.30781 57.2289 9.2306 57.0538 9.13186 56.9877C9.03334 56.9207 8.90089 56.8172 8.73473 56.8172H8.54704V60.9792L8.85696 60.9801C9.21603 60.9801 9.50333 60.9218 9.73865 60.807C9.9744 60.6924 10.1412 60.5197 10.2486 60.2908C10.3204 60.1204 10.3646 59.8398 10.3881 59.5695C10.4194 59.2562 10.5336 59.0422 10.7362 59.0422H11.3744V61.9346H6.47833Z" fill="#FFFF"/>
<path id="Fill-43" fill-rule="evenodd" clip-rule="evenodd" d="M12.0268 52.9915V52.7917C12.0268 52.6816 12.0539 52.5943 12.0242 52.5296C11.995 52.4653 11.967 52.4034 11.9 52.3436C11.883 52.33 11.8717 52.3162 11.8484 52.3026C11.7595 52.2383 11.7192 52.2937 11.7201 52.1785L11.7242 51.9229H13.7666V52.0345C13.7666 52.1494 13.8684 52.2383 13.7706 52.3026C13.7377 52.3209 13.7938 52.334 13.7845 52.3436C13.7179 52.4034 13.7547 52.4653 13.7251 52.53C13.6966 52.5943 13.7666 52.6816 13.7666 52.7917V52.9915L13.7199 60.9794L14.0257 60.9803C14.3865 60.9794 14.6692 60.9222 14.9063 60.8074C15.1418 60.6917 15.3077 60.5202 15.4156 60.2912C15.4874 60.1208 15.532 59.8411 15.555 59.5699C15.585 59.2566 15.699 59.0426 15.9015 59.0426H16.3765V61.935H11.8093V61.4344C11.8093 61.3153 11.7777 61.2228 11.8813 61.1585C11.9171 61.1358 11.9032 61.1176 11.9219 61.1033C12.0063 61.035 12.0052 60.9643 12.0394 60.8899C12.0713 60.8174 12.0268 60.7022 12.0268 60.5453V60.4567V52.9915Z" fill="#FFFF"/>
<path id="Fill-45" fill-rule="evenodd" clip-rule="evenodd" d="M18.2531 58.3747H19.6748L18.9543 54.5777L18.2531 58.3747ZM18.0985 59.0422L17.9082 60.1422C17.9047 60.1645 17.9013 60.2181 17.8963 60.2537C17.8695 60.4332 17.8558 60.5652 17.8558 60.6299C17.8558 60.8104 17.9626 60.9674 18.095 61.0909C18.2268 61.2153 18.3338 61.3328 18.3338 61.434V61.9346H16.3765V61.434C16.3765 61.3098 16.4593 61.216 16.54 61.1521C16.5705 61.1285 16.6096 61.1152 16.6153 61.1103C16.7055 61.0186 16.7919 60.8873 16.8547 60.7145C16.9171 60.542 16.9809 60.3013 17.0348 59.9949L18.4191 52.6396L18.3334 52.2671C18.3275 52.2593 18.3262 52.2469 18.3236 52.2337C18.321 52.2195 18.3197 52.199 18.3203 52.1712C18.3197 52.0609 18.4569 51.9647 18.7323 51.8813L18.7518 51.8749C18.9587 51.811 19.1631 51.73 19.368 51.6297C19.5728 51.5316 19.6838 51.4819 19.702 51.4819C19.7414 51.4824 19.779 51.4946 19.8097 51.5202C19.841 51.5445 19.8601 51.5805 19.8695 51.6259L21.662 60.4559C21.7077 60.6858 21.6564 60.8873 21.7716 61.0591C21.8856 61.232 21.8136 61.3568 21.8136 61.434V61.9346H19.4213V61.434C19.4213 61.3241 19.6346 61.2073 19.7668 61.0834C19.8991 60.9592 20.0393 60.817 20.0393 60.6553C20.0393 60.5863 20.0718 60.5102 20.0633 60.4286C20.0537 60.3456 20.0576 60.2156 20.0407 60.1284L19.8564 59.0422H18.0985Z" fill="#FFFF"/>
<path id="Fill-47" fill-rule="evenodd" clip-rule="evenodd" d="M27.2507 52.5901V56.1499H27.2641C27.8213 56.1499 28.2141 56.0936 28.4407 55.8115C28.6676 55.5296 28.7811 55.074 28.7811 54.3618C28.7811 53.6496 28.6669 53.2262 28.4407 52.9416C28.2128 52.6575 27.8213 52.5901 27.2641 52.5901H27.2507ZM26.4973 51.6342C27.2831 51.6338 27.8672 51.6616 28.1978 51.7128C28.5284 51.7653 28.8318 51.8523 29.0834 51.9709C29.5008 52.1733 29.8329 52.4806 30.0669 52.8909C30.3011 53.3029 30.4209 53.7771 30.4209 54.3139C30.4209 55.2758 30.1552 55.8151 29.6208 56.2861C29.0869 56.7567 28.2735 56.8174 27.1835 56.8174H27.2507V60.6416C27.2507 60.7524 27.2085 60.8394 27.2441 60.905C27.2802 60.968 27.3146 61.037 27.4088 61.1104C27.4227 61.1195 27.4316 61.1358 27.4673 61.1587C27.5801 61.2321 27.6291 61.3778 27.6291 61.4877L27.6208 61.9347H25.0758V61.4341C25.0758 61.3151 25.1408 61.2225 25.2435 61.1582C25.2792 61.1358 25.3129 61.118 25.3311 61.103C25.4162 61.0352 25.4514 60.964 25.4853 60.8897C25.519 60.8171 25.5108 60.7019 25.5108 60.5455V60.456V52.7914C25.5108 52.6815 25.5245 52.5941 25.4942 52.5293C25.4658 52.465 25.431 52.4034 25.3631 52.3433C25.3459 52.33 25.2792 52.3159 25.2563 52.3024C25.1674 52.2381 25.0758 52.1491 25.0758 52.0343V51.6338L26.4973 51.6342Z" fill="#FFFF"/>
<path id="Fill-49" fill-rule="evenodd" clip-rule="evenodd" d="M32.6878 52.59V56.1543L32.7793 56.1547C33.2463 56.1547 33.5668 56.0034 33.7974 55.6971C34.0284 55.3912 34.1299 54.9306 34.1299 54.3138C34.1308 53.6348 34.019 53.2134 33.8078 52.9426C33.5953 52.6705 33.2247 52.59 32.7091 52.59H32.6878ZM32.0081 51.9225C32.6776 51.9225 33.1725 51.801 33.4931 51.8475C33.8146 51.8927 34.101 51.896 34.352 52.0015C34.7965 52.1951 35.1384 52.4425 35.3765 52.8167C35.6145 53.192 35.7341 53.6197 35.7337 54.1394C35.7337 54.8521 35.5542 55.4012 35.1939 55.8059C34.8354 56.2108 34.283 56.474 33.5368 56.6075C33.9857 56.727 34.3304 56.9255 34.5686 57.2049C34.8056 57.4846 35.0062 57.9478 35.1671 58.5953L35.5921 60.3876C35.6417 60.5901 35.6884 60.7456 35.7337 60.8556C35.7785 60.9659 35.8298 61.0473 35.8881 61.0969C35.9024 61.1103 35.8248 61.1285 35.865 61.1521C35.9909 61.2251 35.9501 61.3103 35.9501 61.4067V61.9346H34.447L33.5773 58.3659C33.5645 58.3149 33.6049 58.2212 33.5879 58.1387C33.4131 57.4274 32.6878 57.0256 32.6878 56.9891V60.6415C32.6878 60.7523 32.6484 60.8393 32.6856 60.904C32.72 60.9679 32.7569 61.0369 32.8518 61.1103C32.8642 61.1203 32.686 61.1361 32.7226 61.1581C32.8344 61.232 32.6878 61.3241 32.6878 61.434V61.9346H30.7304V61.434C30.7304 61.315 30.6902 61.2224 30.793 61.1586C30.8294 61.1357 30.8094 61.1174 30.8289 61.103C30.9135 61.0351 30.9496 60.9639 30.9833 60.8896C31.0166 60.8171 30.991 60.7018 30.9901 60.5454L30.9479 60.456V52.7913C30.9479 52.6814 30.9638 52.594 30.9364 52.5297C30.9059 52.4649 30.8733 52.4033 30.8061 52.3432C30.7878 52.3299 30.8281 52.3159 30.8065 52.3023C30.7167 52.238 30.7304 52.149 30.7304 52.0342V51.9225H32.0081Z" fill="#FFFF"/>
<path id="Fill-51" fill-rule="evenodd" clip-rule="evenodd" d="M40.3113 50.5305L38.9531 51.4777H38.5447L39.7493 49.9496C39.8716 49.8074 39.9783 49.6435 40.0692 49.5825C40.1593 49.5204 40.248 49.4595 40.3354 49.4595C40.4494 49.4595 40.5408 49.4851 40.6117 49.5672C40.683 49.6506 40.7189 49.7518 40.7189 49.8838C40.7189 49.989 40.6932 50.1365 40.641 50.209C40.589 50.2825 40.479 50.4275 40.3113 50.5305Z" fill="#FFFF"/>
<path id="Fill-53" fill-rule="evenodd" clip-rule="evenodd" d="M39.8647 57.6784V55.7694C39.8647 54.368 39.7253 53.4442 39.5946 52.9987C39.4645 52.5529 39.1949 52.3299 38.8558 52.3299C38.5104 52.3299 38.1464 52.5573 38.0146 53.0125C37.881 53.4675 37.6899 54.3862 37.6899 55.769V57.6784C37.6899 59.0654 37.8623 59.9894 37.9959 60.4496C38.1274 60.909 38.42 61.1384 38.7653 61.1384C39.104 61.1384 39.4382 60.9128 39.5683 60.4631C39.6992 60.0132 39.8647 59.0841 39.8647 57.6784ZM38.819 62.0001C37.9883 61.9997 37.3338 61.5315 36.8543 60.5977C36.376 59.6617 36.1375 58.3746 36.1375 56.7342C36.1375 55.0893 36.3767 53.8013 36.8534 52.8679C37.3338 51.935 37.9882 51.4678 38.8186 51.4678C39.6411 51.4678 40.2899 51.9346 40.7664 52.8679C41.2425 53.8013 41.4811 55.0893 41.4806 56.7333C41.4811 58.3788 41.2425 59.6682 40.7664 60.6008C40.2899 61.5342 39.6405 61.9997 38.819 62.0001Z" fill="#FFFF"/>
<path id="Fill-55" fill-rule="evenodd" clip-rule="evenodd" d="M43.7795 52.5901V56.15H43.9959C44.5538 56.15 44.9454 56.0937 45.1723 55.8111C45.3983 55.5288 45.5118 55.074 45.5118 54.3609C45.5118 53.6505 45.3983 53.2262 45.1723 52.9416C44.9454 52.6575 44.5538 52.5901 43.9959 52.5901H43.7795ZM43.281 51.9226C44.0681 51.9226 44.6264 51.8061 44.9561 51.8572C45.2863 51.9102 45.5777 51.9244 45.8295 52.0426C46.2473 52.2464 46.5727 52.516 46.8065 52.9272C47.0392 53.3392 47.1555 53.7954 47.1564 54.332C47.1564 55.2936 46.888 55.8245 46.3545 56.2955C45.8202 56.7656 45.007 56.8175 43.9152 56.8175H43.7795V60.6417C43.7795 60.7525 43.8385 60.8395 43.8737 60.9051C43.91 60.9681 43.995 61.037 44.0901 61.1105C44.104 61.1196 44.1771 61.1363 44.2127 61.1583C44.3267 61.2322 44.432 61.3243 44.432 61.4342V61.9348H41.8341L41.835 61.4878C41.835 61.3692 41.8859 61.2495 41.9879 61.1857C42.0251 61.163 42.0525 61.1311 42.0694 61.1165C42.1551 61.0482 42.1925 60.9707 42.2269 60.8964C42.2617 60.8239 42.2571 60.702 42.2571 60.5455V60.4561V52.7915C42.2571 52.6816 42.2632 52.5941 42.2347 52.5294C42.2047 52.4651 42.1671 52.4034 42.0997 52.3434C42.0812 52.33 42.2371 52.316 42.2151 52.3024C42.1253 52.2381 42.2571 52.1491 42.2571 52.0337V51.9226H43.281Z" fill="#FFFF"/>
<path id="Fill-57" fill-rule="evenodd" clip-rule="evenodd" d="M49.4341 52.5901V56.1499H49.4541C49.9204 56.1499 50.2704 56.0011 50.5015 55.6943C50.7323 55.3883 50.8491 54.9298 50.8484 54.3126C50.8484 53.6338 50.7427 53.2128 50.5322 52.942C50.3213 52.6704 49.9574 52.5901 49.4407 52.5901H49.4341ZM48.6899 51.6342C49.3587 51.6342 49.8802 51.6567 50.2003 51.7032C50.5218 51.7484 50.8202 51.8245 51.0716 51.9301C51.5152 52.123 51.8634 52.4067 52.1029 52.781C52.3391 53.1563 52.4622 53.6026 52.4622 54.1219C52.4622 54.8341 52.2832 55.3921 51.9254 55.7968C51.5657 56.2018 51.0142 56.4694 50.2678 56.6029C50.7182 56.7224 51.0603 56.9231 51.2999 57.2025C51.5363 57.4824 51.7384 57.9479 51.8991 58.5944L52.3241 60.3868C52.3737 60.5891 52.4206 60.7455 52.4652 60.8559C52.5111 60.9658 52.562 61.0474 52.6199 61.097C52.6336 61.1104 52.6725 61.1286 52.7134 61.1522C52.8391 61.2256 52.9139 61.31 52.9139 61.4068V61.9347H51.1779L50.3097 58.3655C50.2962 58.315 50.3445 58.2218 50.3269 58.1388C50.1516 57.4275 49.6516 57.0257 49.4341 56.9896V60.6416C49.4341 60.7524 49.3885 60.8394 49.4235 60.905C49.4594 60.968 49.4924 61.037 49.5866 61.1104C49.5999 61.1195 49.5366 61.1358 49.5714 61.1582C49.6829 61.2312 49.6516 61.3242 49.6516 61.4341V61.9347H47.2593V61.4341C47.2593 61.3151 47.32 61.2225 47.4233 61.1587C47.4594 61.1362 47.4907 61.1175 47.5092 61.103C47.5936 61.0352 47.632 60.964 47.666 60.8897C47.6997 60.8171 47.6942 60.7019 47.6942 60.545V60.4565V52.7914C47.6942 52.6815 47.7032 52.5941 47.6742 52.5298C47.6455 52.465 47.6094 52.4034 47.5416 52.3433C47.5237 52.33 47.4607 52.3159 47.4376 52.3024C47.3476 52.2381 47.2593 52.1491 47.2593 52.0343V51.6338L48.6899 51.6342Z" fill="#FFFF"/>
<path id="Fill-59" fill-rule="evenodd" clip-rule="evenodd" d="M55.0888 60.4558V60.6552C55.0888 60.7658 55.2005 60.8539 55.2306 60.9204C55.2586 60.9873 55.3597 61.0508 55.4315 61.1102C55.435 61.1151 55.5085 61.1237 55.5263 61.138C55.6283 61.2158 55.7412 61.3149 55.7412 61.4339V61.9345H53.3489V61.4339C53.3489 61.3149 53.3556 61.2223 53.4594 61.158C53.4952 61.1355 53.4961 61.1202 53.5085 61.1102C53.5986 61.0367 53.5714 60.9638 53.6064 60.8895C53.6394 60.8169 53.5664 60.7017 53.5664 60.5453V60.4558V52.7912C53.5664 52.6813 53.6299 52.5938 53.6005 52.5291C53.5718 52.4648 53.5614 52.4032 53.4955 52.3431C53.4861 52.3335 53.4922 52.3206 53.465 52.3015C53.3711 52.2381 53.3489 52.1489 53.3489 52.0341V51.9224H55.7412V52.0341C55.7412 52.1489 55.6607 52.2381 55.5707 52.3024C55.5472 52.3157 55.51 52.3297 55.4924 52.3431C55.4252 52.4032 55.268 52.4648 55.2399 52.5295C55.2099 52.5938 55.0888 52.6813 55.0888 52.7912V52.991V60.4558Z" fill="#FFFF"/>
<path id="Fill-61" fill-rule="evenodd" clip-rule="evenodd" d="M57.7526 58.3747H59.1734L58.452 54.5772L57.7526 58.3747ZM57.5962 59.0422L57.4083 60.1422C57.4022 60.1654 57.3987 60.2181 57.395 60.2537C57.3663 60.4332 57.3539 60.5661 57.3539 60.6299C57.3539 60.8104 57.6099 60.9674 57.7426 61.0914C57.8755 61.2153 58.1336 61.3328 58.1336 61.434V61.9346H56.1763V61.434C56.1763 61.3098 56.108 61.216 56.1897 61.1521C56.2204 61.1285 56.1841 61.1152 56.1887 61.1103C56.2789 61.0186 56.3268 60.8873 56.3903 60.7145C56.4531 60.542 56.4984 60.3013 56.5527 59.9949L57.9272 52.6396L57.8354 52.2671C57.8302 52.2593 57.8265 52.2469 57.8237 52.2337C57.8211 52.2195 57.8204 52.199 57.82 52.1712C57.82 52.0609 57.9562 51.9647 58.2293 51.8813L58.2495 51.8749C58.4564 51.811 58.6619 51.73 58.8674 51.6297C59.0712 51.5316 59.1815 51.4819 59.1993 51.4819C59.2398 51.4824 59.2763 51.4946 59.3072 51.5202C59.3391 51.5449 59.3592 51.5805 59.3685 51.6259L61.1601 60.4559C61.2058 60.6858 61.1201 60.8873 61.2345 61.0582C61.3489 61.232 61.3959 61.3568 61.3959 61.434V61.9346H59.221V61.434C59.221 61.3241 59.2837 61.2073 59.4164 61.0834C59.5492 60.9592 59.613 60.817 59.613 60.6553C59.613 60.5872 59.6062 60.5107 59.599 60.4281C59.5897 60.3456 59.5755 60.2156 59.5579 60.1284L59.3552 59.0422H57.5962Z" fill="#FFFF"/>
<path id="Fill-63" fill-rule="evenodd" clip-rule="evenodd" d="M2.83731 10.5391H4.58655L3.69986 5.8668L2.83731 10.5391ZM2.64636 11.6516L2.41474 13.0588C2.4093 13.0871 2.40343 13.1794 2.39843 13.225C2.36385 13.4462 2.34884 13.6226 2.34884 13.7025C2.34884 13.9221 2.45737 14.1226 2.62135 14.2752C2.78359 14.4281 2.89234 14.5807 2.89234 14.7044V14.7665H0.5V14.7044C0.5 14.5529 0.616355 14.4354 0.71531 14.3569C0.754458 14.3291 0.809046 14.3126 0.814701 14.3059C0.925184 14.1929 1.0361 14.0305 1.11244 13.8189C1.18986 13.6068 1.27055 13.3114 1.3371 12.9327L3.04044 3.8844L2.93496 3.42651C2.92931 3.41561 2.9267 3.40159 2.92409 3.38424C2.92017 3.36777 2.91952 3.34218 2.91996 3.30792C2.91996 3.1722 3.08851 3.05406 3.42605 2.95193L3.4504 2.94415C3.70464 2.86405 3.95845 2.76415 4.20921 2.64289C4.46106 2.52052 4.59873 2.46045 4.61982 2.46045C4.66919 2.46045 4.71421 2.47513 4.75249 2.50695C4.79076 2.53788 4.81556 2.58171 4.82665 2.63822L7.03217 13.5012C7.0861 13.7835 7.14569 14.0309 7.28728 14.2429C7.42799 14.4545 7.45953 14.6085 7.45953 14.7044V14.7665H4.41473V14.7044C4.41473 14.5693 4.60764 14.4245 4.76989 14.2721C4.93343 14.1199 5.07045 13.9444 5.07045 13.747C5.07045 13.662 5.09176 13.5695 5.08154 13.4669C5.0698 13.3661 5.06675 13.1492 5.04392 13.0419L4.80969 11.6516H2.64636Z" fill="#FFFF"/>
<path id="Fill-65" fill-rule="evenodd" clip-rule="evenodd" d="M14.9615 10.0246L16.062 2.61696L18.9863 2.64744V3.13848C18.9863 3.27932 19.0291 3.39012 18.9136 3.46933C18.8799 3.49135 18.9108 3.5067 18.906 3.51182C18.8175 3.59014 18.8071 3.66912 18.7712 3.749C18.7351 3.82821 18.7688 3.93545 18.7688 4.07161V4.31658V13.679C18.7688 13.8486 18.7625 13.9736 18.8049 14.0564C18.8464 14.1376 18.9084 14.2215 19.018 14.3062C19.0357 14.3178 18.9112 14.3345 18.9439 14.3565C19.0713 14.4353 18.9863 14.5525 18.9863 14.7043V14.7661H16.3765V14.7043C16.3765 14.5525 16.5009 14.4331 16.6229 14.3487C16.644 14.3309 16.692 14.3178 16.7031 14.3058C16.7912 14.233 16.8934 14.155 16.9326 14.0737C16.9717 13.9908 17.0289 13.8815 17.0289 13.7465V13.5008V3.75701L15.0929 14.7661H14.3469L12.4617 3.75701V13.7465C12.4617 13.8815 12.4404 13.9908 12.4772 14.0737C12.5117 14.155 12.5544 14.233 12.6427 14.3058C12.6481 14.3123 12.5618 14.3265 12.5957 14.3487C12.7221 14.4449 12.6792 14.5639 12.6792 14.7043V14.7661H10.5842L10.5837 14.4931C10.5842 14.3467 10.6483 14.3398 10.7756 14.2604C10.8186 14.2317 10.8521 14.2615 10.8745 14.2442C10.9796 14.1603 11.1607 14.0989 11.2023 14.0081C11.244 13.9173 11.3743 13.8034 11.3743 13.611V13.5008V4.07161C11.3743 3.93545 11.2462 3.8291 11.2112 3.749C11.1753 3.66912 11.0616 3.59259 10.9793 3.5205C10.9567 3.50314 10.9241 3.48624 10.896 3.46933C10.7851 3.39012 10.7218 3.27932 10.7218 3.13848V2.5293H13.7007L14.9615 10.0246Z" fill="#FFFF"/>
<path id="Fill-67" fill-rule="evenodd" clip-rule="evenodd" d="M24.4233 4.3168V4.07161C24.4233 3.93567 24.3948 3.82843 24.3589 3.74922C24.3235 3.66935 24.2589 3.59281 24.1769 3.52028C24.1656 3.50893 24.139 3.49202 24.1077 3.46933C23.9903 3.39034 23.9318 3.22102 23.9318 3.07974L23.9298 2.5293H26.3807V3.13826C26.3807 3.27954 26.1817 3.39034 26.059 3.46933C26.031 3.4869 25.937 3.50337 25.9146 3.52072C25.838 3.58903 25.6882 3.65844 25.6538 3.73231C25.6227 3.80573 25.5107 3.90697 25.5107 4.03779V4.3168V11.1776C25.5107 12.1788 25.534 12.8732 25.4627 13.263C25.3909 13.6528 25.3 13.9812 25.1275 14.2468C24.8792 14.6313 24.5697 14.9199 24.1686 15.1117C23.7682 15.3037 23.2959 15.4005 22.7387 15.4005C21.7434 15.4005 21.0362 15.1159 20.6114 14.5483C20.1863 13.9796 19.9742 13.0127 19.9742 11.6444L19.9759 4.07161C19.9751 3.93567 19.9572 3.82843 19.9229 3.74922C19.8859 3.66935 19.8276 3.59281 19.7445 3.52072C19.7274 3.50893 19.6606 3.49157 19.6278 3.46933C19.5168 3.39501 19.4211 3.28599 19.4211 3.13826V2.64677L22.2485 2.64766V3.1387C22.2485 3.27954 22.2578 3.39034 22.1367 3.46933C22.0977 3.49202 22.1108 3.5067 22.106 3.51204C22.0216 3.58458 21.9324 3.65844 21.8972 3.73231C21.8618 3.80573 21.8135 3.90697 21.8135 4.03779V4.3168V12.0762C21.8135 12.8845 21.9501 13.429 22.1299 13.7084C22.3093 13.9879 22.6464 14.1278 23.0943 14.1278C23.5645 14.1278 23.9176 13.9569 24.1101 13.6154C24.3054 13.2734 24.4233 12.6694 24.4233 11.805V4.3168Z" fill="#FFFF"/>
<path id="Fill-69" fill-rule="evenodd" clip-rule="evenodd" d="M26.3807 15.6565V11.6516H26.6419C26.9669 11.6516 27.153 11.8169 27.1972 12.2746C27.2187 12.4557 27.2363 12.5629 27.2465 12.6588C27.3288 13.2295 27.5106 13.6478 27.7898 13.9451C28.0693 14.2414 28.4325 14.3818 28.8801 14.3818C29.3218 14.3818 29.6778 14.2143 29.9484 13.8859C30.2194 13.5586 30.3544 13.1245 30.354 12.587C30.354 12.158 30.2513 11.7379 30.0441 11.3308C29.8375 10.9241 29.3916 10.3469 28.7057 9.60023C28.6176 9.49855 28.4851 9.35193 28.3083 9.15903C26.9094 7.64408 26.2104 6.40614 26.2104 5.4452C26.2104 4.5579 26.4529 3.83547 26.9401 3.27924C27.4262 2.72123 28.0506 2.44312 28.8133 2.44312C29.1287 2.44401 29.4408 2.49006 29.7498 2.58262C30.0597 2.67606 30.2274 2.72346 30.2555 2.72346C30.3268 2.72346 30.4177 2.67428 30.5243 2.62623C30.6324 2.57795 30.7057 2.52944 30.7444 2.52944H31.3829V5.86682H30.7283C30.5125 5.86682 30.3801 5.69617 30.3307 5.36376C30.2974 5.15529 30.2665 4.98553 30.2394 4.8616C30.1176 4.35855 29.9545 3.99722 29.7498 3.77962C29.5449 3.56225 29.2724 3.45234 28.9281 3.45256C28.6037 3.45256 28.3435 3.56559 28.15 3.79142C27.9556 4.01791 27.8603 4.31983 27.8594 4.69918C27.8603 5.25808 28.2502 5.95404 29.0291 6.78526C29.1563 6.92054 29.2531 7.02556 29.3192 7.09898C29.9157 7.73731 30.3512 8.21767 30.6239 8.53939C30.8977 8.86134 31.1363 9.16771 31.3411 9.45583C31.5732 9.80003 31.7483 10.1707 31.8633 10.5667C31.9803 10.9634 32.038 11.3871 32.038 11.8389C32.038 12.8733 31.7457 13.7159 31.1591 14.366C30.5732 15.0161 29.8192 15.3407 28.897 15.3407C28.5865 15.3407 28.2668 15.2925 27.9392 15.1968C27.61 15.1011 27.4316 15.0526 27.4042 15.0522C27.3481 15.0522 27.2533 15.2982 27.1182 15.3548C26.9823 15.411 26.8742 15.6565 26.79 15.6565H26.3807Z" fill="#FFFF"/>
<path id="Fill-71" fill-rule="evenodd" clip-rule="evenodd" d="M34.6452 13.5017V13.7469C34.6452 13.8819 34.5778 13.9909 34.613 14.0739C34.6491 14.1551 34.6676 14.233 34.7561 14.306C34.7615 14.3127 34.7124 14.3229 34.7357 14.3405C34.8627 14.4355 34.8627 14.5576 34.8627 14.7045V14.7666H31.8179V14.7045C31.8179 14.5576 31.9612 14.4455 32.088 14.3661C32.1326 14.3378 32.2026 14.3182 32.2193 14.306C32.3305 14.2161 32.4266 14.1253 32.4673 14.0352C32.5095 13.9444 32.5399 13.8036 32.539 13.6112L32.5451 13.5012L32.5467 4.07181C32.5473 3.93587 32.5312 3.82841 32.4953 3.74942C32.4586 3.66955 32.3999 3.59301 32.3174 3.52048C32.3061 3.50913 32.2626 3.49222 32.2296 3.46953C32.1147 3.39054 32.0354 3.27974 32.0354 3.1389V2.64786L34.8627 2.64697V3.13846C34.8627 3.27974 34.8485 3.39054 34.7385 3.46953C34.7119 3.48688 34.7063 3.50334 34.6852 3.52092C34.601 3.59301 34.6391 3.66955 34.6026 3.74942C34.5671 3.82841 34.6452 3.93587 34.6452 4.07181V4.317V13.5017Z" fill="#FFFF"/>
<path id="Fill-73" fill-rule="evenodd" clip-rule="evenodd" d="M40.9523 11.6516V12.0254C40.9523 13.1223 40.7206 13.9593 40.2935 14.5353C39.8655 15.1116 39.2389 15.4006 38.4327 15.4006C37.404 15.4006 36.5945 14.8279 36.0075 13.6832C35.4216 12.5391 35.1276 10.9517 35.1276 8.92186C35.1276 6.92677 35.4183 5.3473 36.0016 4.18567C36.5832 3.02449 37.3603 2.44312 38.3344 2.44312C38.5603 2.44312 38.8226 2.49829 39.1212 2.60909C39.4199 2.71901 39.6093 2.77329 39.6928 2.77329C39.7807 2.77329 39.8911 2.71166 40.0236 2.65226C40.1567 2.59263 40.2446 2.52944 40.2894 2.52944H40.5173V6.31181H40.2896C40.046 6.31181 39.8746 5.93223 39.7757 5.49682C39.7419 5.35086 39.7148 5.15774 39.6928 5.07253C39.5382 4.46757 39.3779 4.02948 39.2161 3.83391C39.0538 3.63968 38.8281 3.52265 38.5412 3.5222C38.0991 3.52265 37.7844 3.88353 37.5949 4.62331C37.4079 5.36466 37.3135 6.64821 37.3135 8.48555C37.3135 10.6224 37.4186 12.093 37.6286 12.9009C37.8383 13.7097 38.1976 14.1126 38.7058 14.1126C39.1215 14.1126 39.4279 13.855 39.6299 13.4794C39.8322 13.1036 39.9399 12.7641 39.9499 11.6516H40.9523Z" fill="#FFFF"/>
<path id="Fill-75" fill-rule="evenodd" clip-rule="evenodd" d="M42.6651 10.5391H44.4145L43.5276 5.8668L42.6651 10.5391ZM42.4741 11.6516L42.2432 13.0588C42.2375 13.0871 42.2312 13.1794 42.2253 13.225C42.1929 13.4455 42.1751 13.6231 42.1751 13.7025C42.1751 13.9221 42.258 14.123 42.4198 14.2752C42.5838 14.4281 42.6657 14.3622 42.6651 14.4866L42.6657 14.7665H40.5172V14.7044C40.5172 14.5524 40.5385 14.4354 40.6384 14.3569C40.6768 14.3286 40.6845 14.3126 40.6901 14.3059C40.8006 14.1929 40.8882 14.0309 40.9644 13.8189C41.0424 13.6068 41.1101 13.3114 41.1773 12.9336L42.8754 3.88484L42.7656 3.42695C42.7606 3.41561 42.7549 3.40159 42.7523 3.38424C42.7501 3.36777 42.7486 3.34218 42.7486 3.30792C42.7482 3.17265 42.9174 3.05361 43.2536 2.95193L43.2778 2.94415C43.5326 2.8636 43.7854 2.76415 44.0374 2.64289C44.2884 2.52052 44.4254 2.46045 44.4472 2.46045C44.4974 2.46045 44.5407 2.47513 44.5796 2.50651C44.6188 2.53788 44.6431 2.58171 44.6549 2.63822L46.8591 13.5016C46.915 13.7833 46.9598 14.0309 47.1001 14.2429C47.2419 14.4545 47.2593 14.6089 47.2593 14.7044V14.7665H44.4639L44.4641 14.4933C44.4639 14.3582 44.5448 14.3193 44.7079 14.1669C44.8717 14.0147 44.953 13.8912 44.9526 13.6943C44.953 13.6086 44.9463 13.5425 44.9369 13.4404C44.9261 13.3392 44.9085 13.1367 44.8874 13.0286L44.6383 11.6516H42.4741Z" fill="#FFFF"/>
<path id="Fill-77" fill-rule="evenodd" clip-rule="evenodd" d="M51.3302 10.8034C50.4685 9.7844 49.6105 8.90355 49.0105 7.67718C48.4744 6.58207 48.5472 5.10161 49.1923 4.07659C50.6134 1.81473 54.074 1.99896 55.0775 4.42501C55.5896 2.93676 57.1557 2.36295 58.6605 2.46263C60.4417 2.58122 61.6177 4.1974 61.4907 5.97845C61.3201 8.31773 59.6692 10.0303 58.0235 11.47C56.3313 12.9522 54.3761 14.0616 52.4183 15.1316C52.5381 13.6179 52.3315 11.9875 51.3302 10.8034C51.5997 11.1216 50.7693 10.1406 51.3302 10.8034Z" fill="#FFFF"/>
</g>
</g>
</g>
</g>
</g>
</svg>
